<?xml version="1.0" encoding="UTF-8"?>
<svg width="16px" height="17px" viewBox="0 0 16 17" version="1.1" xmlns="http://www.w3.org/2000/svg" xmlns:xlink="http://www.w3.org/1999/xlink">
    <!-- Generator: Sketch 47.1 (45422) - http://www.bohemiancoding.com/sketch -->
    <title>if_Avatar_Famous_Characters-12_2612544</title>
    <desc>Created with Sketch.</desc>
    <defs></defs>
    <g id="Page-1" stroke="none" stroke-width="1" fill="none" fill-rule="evenodd">
        <g id="Artboard" transform="translate(-576.000000, -296.000000)" fill-rule="nonzero">
            <g id="if_Avatar_Famous_Characters-12_2612544" transform="translate(576.000000, 296.000000)">
                <path d="M13.1055,12.048525 L12.31965,3.970475 C12.10505,1.756025 10.3517,0.083475 8.12205,0.061775 C8.08695,0.061475 8.05185,0.061475 8.01675,0.061725 C5.78135,0.081375 3.892,1.764275 3.68435,3.985225 L2.92735,11.948875" id="Shape" fill="#464747"></path>
                <path d="M6.2936,9.821825 L6.2473,10.398975 L3.6964,11.143525 C2.3197,11.547525 1.22645,12.511375 0.7579,13.746475 L0.07535,15.547275 C0.07535,15.547275 7.67025,18.669725 15.92465,15.558825 L15.24205,13.758025 C14.77355,12.522925 13.68605,11.559075 12.30355,11.155025 L9.75265,10.410525 L9.70635,9.787175" id="Shape" fill="#FFABD5"></path>
                <path d="M9.79675,10.372275 C9.7968,12.171575 6.2367,12.154075 6.23665,10.357125 L6.23665,9.610925 L9.79675,9.610925 L9.79675,10.372275 Z" id="Shape" fill="#DDBEA8"></path>
                <path d="M11.10415,7.683275 C11.52825,7.762375 11.63545,7.199325 11.75925,6.662925 C11.82115,6.394675 11.8767,6.137325 11.8637,5.937075 C11.84795,5.693375 11.582,5.545625 11.3512,5.625425 L11.0073,5.744425 L11.0073,4.778575 L4.9756,4.778575 C4.9756,4.778575 4.9756,5.742325 4.9756,5.744425 C4.9756,5.714575 4.62135,5.591925 4.58105,5.579225 C4.4393,5.534425 4.28375,5.517675 4.16995,5.630875 C3.92575,5.873825 4.0914,6.379175 4.1569,6.662925 C4.2807,7.199325 4.38795,7.762375 4.81205,7.683275 C5.2278,9.178275 6.47235,10.357525 7.94585,10.357525 C9.4466,10.357525 10.71215,9.231625 11.10415,7.693925" id="Shape" fill="#F9D9C0"></path>
            </g>
        </g>
    </g>
</svg>