<?xml version="1.0" encoding="UTF-8"?>
<svg width="25px" height="25px" viewBox="0 0 25 25" version="1.1" xmlns="http://www.w3.org/2000/svg" xmlns:xlink="http://www.w3.org/1999/xlink">
    <!-- Generator: Sketch 47.1 (45422) - http://www.bohemiancoding.com/sketch -->
    <title>6B</title>
    <desc>Created with Sketch.</desc>
    <defs></defs>
    <g id="Page-1" stroke="none" stroke-width="1" fill="none" fill-rule="evenodd">
        <g id="Artboard" transform="translate(-1337.000000, -23.000000)" fill="#F2F2F2">
            <path d="M1349.50024,34.3133425 C1350.1556,34.3133425 1350.68754,34.8444975 1350.68754,35.5003247 C1350.68754,36.1555025 1350.1556,36.6873068 1349.50024,36.6873068 C1348.84424,36.6873068 1348.3123,36.1555025 1348.3123,35.5003247 C1348.3123,34.8444975 1348.84424,34.3133425 1349.50024,34.3133425 Z M1344.06907,34.3133425 C1344.72507,34.3133425 1345.25637,34.8444975 1345.25637,35.5003247 C1345.25637,36.1555025 1344.72507,36.6873068 1344.06907,36.6873068 C1343.41307,36.6873068 1342.88177,36.1555025 1342.88177,35.5003247 C1342.88177,34.8444975 1343.41307,34.3133425 1344.06907,34.3133425 Z M1354.93077,34.3133425 C1355.58677,34.3133425 1356.11872,34.8444975 1356.11872,35.5003247 C1356.11872,36.1555025 1355.58677,36.6873068 1354.93077,36.6873068 C1354.27542,36.6873068 1353.74347,36.1555025 1353.74347,35.5003247 C1353.74347,34.8444975 1354.27542,34.3133425 1354.93077,34.3133425 Z M1356.95983,42.9611698 C1354.96649,44.9539752 1352.3165,46.0519986 1349.497,46.0519986 C1346.67814,46.0519986 1344.0275,44.9539752 1342.03351,42.9611698 C1337.91889,38.846991 1337.91889,32.153009 1342.03351,28.0388302 C1344.0275,26.0460248 1346.67814,24.9480014 1349.497,24.9480014 C1352.3165,24.9480014 1354.96649,26.0460248 1356.95983,28.0388302 C1358.95381,30.0316355 1360.05148,32.6815667 1360.05148,35.5003247 C1360.05148,38.3184333 1358.95381,40.9683645 1356.95983,42.9611698 Z M1358.33808,26.6615932 C1355.97647,24.3006156 1352.83676,23 1349.497,23 C1346.15788,23 1343.01752,24.3006156 1340.65591,26.6615932 C1335.78136,31.5348433 1335.78136,39.4651567 1340.65591,44.3384068 C1343.01752,46.6993844 1346.15788,48 1349.497,48 C1352.83676,48 1355.97647,46.6993844 1358.33808,44.3384068 C1360.69969,41.9774292 1362,38.8385496 1362,35.5003247 C1362,32.1614504 1360.69969,29.0225708 1358.33808,26.6615932 L1358.33808,26.6615932 Z" id="6B"></path>
        </g>
    </g>
</svg>