<?xml version="1.0" encoding="UTF-8"?>
<svg width="99px" height="20px" viewBox="0 0 99 20" version="1.1" xmlns="http://www.w3.org/2000/svg" xmlns:xlink="http://www.w3.org/1999/xlink">
    <!-- Generator: Sketch 47.1 (45422) - http://www.bohemiancoding.com/sketch -->
    <title>logo</title>
    <desc>Created with Sketch.</desc>
    <defs></defs>
    <g id="Page-1" stroke="none" stroke-width="1" fill="none" fill-rule="evenodd">
        <g id="Artboard" transform="translate(-670.000000, -29.000000)">
            <g id="logo" transform="translate(670.000000, 29.000000)">
                <rect id="Rectangle-5" fill="#1357FE" opacity="0.560000002" x="14" y="1" width="85" height="7"></rect>
                <rect id="Rectangle-5" fill="#1357FE" opacity="0.560000002" x="0" y="12" width="85" height="7"></rect>
                <path d="M22.9091797,16.7148438 L23.0107422,17.1083984 L23.125,16.7148438 L28.9394531,0.515625 L30.6533203,0.515625 L23.7724609,19 L22.2744141,19 L15.3935547,0.515625 L17.0947266,0.515625 L22.9091797,16.7148438 Z M47.0302734,10.7607422 C47.0302734,12.4619226 46.7361683,13.9557227 46.1479492,15.2421875 C45.5597301,16.5286523 44.719732,17.5188767 43.6279297,18.2128906 C42.5361274,18.9069045 41.2750723,19.2539062 39.8447266,19.2539062 C37.6865126,19.2539062 35.9430405,18.4816158 34.6142578,16.9370117 C33.2854751,15.3924076 32.6210938,13.3082813 32.6210938,10.6845703 L32.6210938,8.78027344 C32.6210938,7.09602022 32.9194306,5.60433592 33.5161133,4.30517578 C34.112796,3.00601564 34.9570258,2.00732771 36.0488281,1.30908203 C37.1406305,0.610836353 38.3974538,0.26171875 39.8193359,0.26171875 C41.241218,0.26171875 42.4959256,0.60448876 43.5834961,1.29003906 C44.6710666,1.97558937 45.5110647,2.9446552 46.1035156,4.19726562 C46.6959665,5.44987605 47.0048827,6.90135894 47.0302734,8.55175781 L47.0302734,10.7607422 Z M45.46875,8.75488281 C45.46875,6.52896022 44.9651743,4.78548808 43.9580078,3.52441406 C42.9508413,2.26334005 41.5712978,1.6328125 39.8193359,1.6328125 C38.1012284,1.6328125 36.7322642,2.26545591 35.7124023,3.53076172 C34.6925405,4.79606752 34.1826172,6.56281418 34.1826172,8.83105469 L34.1826172,10.7607422 C34.1826172,12.9528104 34.6904246,14.689935 35.7060547,15.972168 C36.7216848,17.2544009 38.1012283,17.8955078 39.8447266,17.8955078 C41.6136156,17.8955078 42.9931591,17.2628644 43.9833984,15.9975586 C44.9736378,14.7322528 45.46875,12.9697379 45.46875,10.7099609 L45.46875,8.75488281 Z M52.8701172,19 L51.3085938,19 L51.3085938,0.515625 L52.8701172,0.515625 L52.8701172,19 Z M58.5830078,17.6796875 L69.9960938,17.6796875 L69.9960938,19 L56.6914062,19 L56.6914062,17.8193359 L67.6601562,1.84863281 L57.0214844,1.84863281 L57.0214844,0.515625 L69.5898438,0.515625 L69.5898438,1.6328125 L58.5830078,17.6796875 Z M83.6435547,10.1386719 L74.9980469,10.1386719 L74.9980469,17.6796875 L84.9384766,17.6796875 L84.9384766,19 L73.4365234,19 L73.4365234,0.515625 L84.875,0.515625 L84.875,1.84863281 L74.9980469,1.84863281 L74.9980469,8.81835938 L83.6435547,8.81835938 L83.6435547,10.1386719 Z" id="VOIZE" fill="#F8E71C"></path>
            </g>
        </g>
    </g>
</svg>