<?xml version="1.0" encoding="UTF-8"?>
<svg width="17px" height="16px" viewBox="0 0 17 16" version="1.1" xmlns="http://www.w3.org/2000/svg" xmlns:xlink="http://www.w3.org/1999/xlink">
    <!-- Generator: Sketch 47.1 (45422) - http://www.bohemiancoding.com/sketch -->
    <title>if_Avatar_Famous_Characters-06_2612538</title>
    <desc>Created with Sketch.</desc>
    <defs></defs>
    <g id="Page-1" stroke="none" stroke-width="1" fill="none" fill-rule="evenodd">
        <g id="Artboard" transform="translate(-573.000000, -457.000000)" fill-rule="nonzero">
            <g id="if_Avatar_Famous_Characters-06_2612538" transform="translate(573.000000, 457.000000)">
                <path d="M6.707175,8.688385 L6.647525,9.395085 L3.953975,10.125185 C2.493675,10.520935 1.342275,11.468085 0.846925,12.681235 L0.124725,14.449585 C0.124725,14.449585 8.152075,17.519335 16.875275,14.463685 L16.153075,12.695385 C15.657675,11.482285 14.506325,10.535035 13.046025,10.139285 L10.297125,9.395235 L10.206325,8.688385" id="Shape" fill="#ABCBFF"></path>
                <path d="M10.325475,9.502735 C10.325475,11.427185 6.647525,11.408435 6.647525,9.486535 L6.647525,8.289585 L10.325475,8.238735 L10.325475,9.502735 Z" id="Shape" fill="#DDBEA8"></path>
                <path d="M5.769025,6.061985 C5.769025,6.061985 4.447325,4.020885 4.485775,2.737435 C4.524275,1.453935 5.268225,1.693535 5.447075,1.755535 C5.447075,1.755535 6.301875,0.618885 8.193925,0.293085 C10.085975,-0.032715 11.628575,0.461185 11.628575,0.461185 C11.628575,0.461185 11.137775,1.087935 11.355225,1.585035 C11.572675,2.082085 12.404575,2.736785 11.908375,4.619535 L10.943675,6.140485 L10.890575,3.961435 L10.878775,3.282885 L8.486475,3.371385 L5.741825,2.958135 L6.323675,4.138435 L5.769025,6.061985 Z" id="Shape" fill="#464747"></path>
                <path d="M4.971775,4.578185 C4.971775,4.578185 4.547225,4.893535 4.530125,5.486535 C4.512975,6.079535 4.766425,6.713285 5.488925,6.772435 C5.488925,6.772435 5.740075,7.951035 6.647525,8.688385 C7.554975,9.425735 8.577425,9.395085 8.577425,9.395085 C8.577425,9.395085 10.896575,8.994385 11.402475,6.806985 C11.402475,6.806985 12.354125,6.689285 12.443075,5.915435 C12.531975,5.141585 11.908375,4.619535 11.908375,4.619535 L11.159525,5.779885 L11.078725,3.992385 L11.221675,2.958135 L8.499975,3.103885 L5.636225,2.885735 L5.900475,3.990835 L5.754275,5.833385 L4.971775,4.578185 Z" id="Shape" fill="#F9D9C0"></path>
            </g>
        </g>
    </g>
</svg>