<?xml version="1.0" encoding="UTF-8"?>
<svg width="20px" height="30px" viewBox="0 0 20 30" version="1.1" xmlns="http://www.w3.org/2000/svg" xmlns:xlink="http://www.w3.org/1999/xlink">
    <!-- Generator: Sketch 47.1 (45422) - http://www.bohemiancoding.com/sketch -->
    <title>10E</title>
    <desc>Created with Sketch.</desc>
    <defs></defs>
    <g id="Page-1" stroke="none" stroke-width="1" fill="none" fill-rule="evenodd">
        <g id="Artboard" transform="translate(-1296.000000, -22.000000)" fill="#FF485E">
            <path d="M1315.41935,37.16 C1315.41935,36.636 1315.0129,36.2106667 1314.50323,36.2106667 C1313.99355,36.2106667 1313.5871,36.636 1313.5871,37.16 C1313.5871,41.6086667 1310.08387,45.228 1305.77419,45.228 C1301.47097,45.228 1297.96774,41.6086667 1297.96774,37.16 C1297.96774,36.636 1297.56129,36.2106667 1297.05161,36.2106667 C1296.54194,36.2106667 1296.13548,36.636 1296.13548,37.16 C1296.13548,42.3353333 1299.96774,46.598 1304.85806,47.0786667 L1304.85806,49.768 L1300.52258,49.768 C1300.0129,49.768 1299.6,50.1933333 1299.6,50.7173333 C1299.6,51.2413333 1300.0129,51.6666667 1300.52258,51.6666667 L1311.03226,51.6666667 C1311.54194,51.6666667 1311.95484,51.2413333 1311.95484,50.7173333 C1311.95484,50.1933333 1311.54194,49.768 1311.03226,49.768 L1306.69677,49.768 L1306.69677,47.0786667 C1311.5871,46.598 1315.41935,42.3353333 1315.41935,37.16 M1303.38065,26.6293333 C1303.38065,25.3493333 1304.3871,24.3093333 1305.62581,24.3093333 L1305.92903,24.3093333 C1307.16774,24.3093333 1308.17419,25.3493333 1308.17419,26.6293333 L1308.17419,37.766 C1308.17419,39.0453333 1307.16774,40.086 1305.92903,40.086 L1305.62581,40.086 C1304.3871,40.086 1303.38065,39.0453333 1303.38065,37.766 L1303.38065,26.6293333 Z M1305.62581,41.9846667 L1305.92903,41.9846667 C1308.18065,41.9846667 1310.00645,40.0926667 1310.00645,37.766 L1310.00645,26.6293333 C1310.00645,24.3033333 1308.18065,22.4106667 1305.92903,22.4106667 L1305.62581,22.4106667 C1303.37419,22.4106667 1301.54194,24.3033333 1301.54194,26.6293333 L1301.54194,37.766 C1301.54194,40.0926667 1303.37419,41.9846667 1305.62581,41.9846667 L1305.62581,41.9846667 Z" id="10E"></path>
        </g>
    </g>
</svg>