<?xml version="1.0" encoding="UTF-8"?>
<svg width="25px" height="25px" viewBox="0 0 25 25" version="1.1" xmlns="http://www.w3.org/2000/svg" xmlns:xlink="http://www.w3.org/1999/xlink">
    <!-- Generator: Sketch 47.1 (45422) - http://www.bohemiancoding.com/sketch -->
    <title>5A</title>
    <desc>Created with Sketch.</desc>
    <defs></defs>
    <g id="Page-1" stroke="none" stroke-width="1" fill="none" fill-rule="evenodd">
        <g id="Artboard" transform="translate(-1248.000000, -24.000000)" fill="#F2F2F2">
            <path d="M1261.49143,37.491434 L1272.00923,37.491434 C1272.5565,37.491434 1273.00066,37.0472715 1273,36.5 C1273,35.9520675 1272.5565,35.508566 1272.00923,35.508566 L1261.49143,35.508566 L1261.49143,24.9907737 C1261.49143,24.4435022 1261.04793,24.0000007 1260.5,24.0000007 C1259.95273,23.9993398 1259.50857,24.4435022 1259.50857,24.9907737 L1259.50857,35.508566 L1248.99143,35.508566 C1248.4435,35.508566 1248,35.9527285 1248,36.5 C1248,36.7742967 1248.11104,37.0214943 1248.29016,37.2012743 C1248.46928,37.3803933 1248.71714,37.491434 1248.99143,37.491434 L1259.50857,37.491434 L1259.50857,48.0092263 C1259.50857,48.282862 1259.61961,48.5307205 1259.79939,48.7098396 C1259.97851,48.8896196 1260.22636,48.9999993 1260.5,48.9999993 C1261.04727,49.0006602 1261.49143,48.5564978 1261.49143,48.0092263 L1261.49143,37.491434" id="5A"></path>
        </g>
    </g>
</svg>