<?xml version="1.0" encoding="UTF-8"?>
<svg width="25px" height="25px" viewBox="0 0 25 25" version="1.1" xmlns="http://www.w3.org/2000/svg" xmlns:xlink="http://www.w3.org/1999/xlink">
    <!-- Generator: Sketch 47.1 (45422) - http://www.bohemiancoding.com/sketch -->
    <title>6F</title>
    <desc>Created with Sketch.</desc>
    <defs></defs>
    <g id="Page-1" stroke="none" stroke-width="1" fill="none" fill-rule="evenodd">
        <g id="Artboard" transform="translate(-33.000000, -24.000000)" fill="#F8E71C">
            <path d="M47.9181602,42.0982001 C45.7160584,42.0982001 43.7185561,41.2181048 42.2584597,39.7887771 C42.2564668,39.7887771 42.2558025,39.7821599 42.2538097,39.7821599 C42.2504882,39.7821599 42.2458383,39.7755426 42.2425168,39.7755426 C40.7545205,38.3131286 39.8291727,36.2816305 39.8291727,34.0449974 C39.8291727,29.5982001 43.4581567,25.9851773 47.9181602,25.9851773 C52.3781637,25.9851773 56.0071477,29.5982001 56.0071477,34.0449974 C56.0071477,38.4851773 52.3781637,42.0982001 47.9181602,42.0982001 Z M47.9181602,24 C42.3594308,24 37.8363204,28.5063526 37.8363204,34.0449974 C37.8363204,36.4801482 38.7138397,38.7167814 40.1679576,40.4571202 L33.2919529,47.305982 C32.9026824,47.6964002 32.9026824,48.3184224 33.2919529,48.7088407 C33.4865881,48.9007411 33.7416732,49 33.9967583,49 C34.2518434,49 34.5062642,48.9007411 34.7008994,48.7088407 L41.5888613,41.8467443 C43.3206499,43.2429857 45.5220874,44.0833774 47.9181602,44.0833774 C53.4775538,44.0833774 58,39.5770249 58,34.0449974 C58,28.5063526 53.4775538,24 47.9181602,24 L47.9181602,24 Z" id="6F"></path>
        </g>
    </g>
</svg>