<?xml version="1.0" encoding="UTF-8"?>
<svg width="17px" height="16px" viewBox="0 0 17 16" version="1.1" xmlns="http://www.w3.org/2000/svg" xmlns:xlink="http://www.w3.org/1999/xlink">
    <!-- Generator: Sketch 47.1 (45422) - http://www.bohemiancoding.com/sketch -->
    <title>if_Avatar_Famous_Characters-07_2612539</title>
    <desc>Created with Sketch.</desc>
    <defs></defs>
    <g id="Page-1" stroke="none" stroke-width="1" fill="none" fill-rule="evenodd">
        <g id="Artboard" transform="translate(-575.000000, -737.000000)" fill-rule="nonzero">
            <g id="if_Avatar_Famous_Characters-07_2612539" transform="translate(575.000000, 737.000000)">
                <path d="M6.716575,8.68896 L6.657175,9.37686 L3.977775,10.08746 C2.525075,10.47266 1.379725,11.39461 0.886925,12.57531 L0.168575,14.29646 C0.168575,14.29646 8.153925,17.28431 16.831425,14.31016 L16.113125,12.58906 C15.620275,11.40831 14.474925,10.48641 13.022275,10.10121 L10.342825,9.39066 L10.288775,8.72446" id="Shape" fill="#8D8D8D"></path>
                <path d="M10.338975,9.39656 C10.339025,11.32101 6.661075,11.30226 6.661025,9.38036 L6.661025,8.12166 L10.338975,8.25106 L10.338975,9.39656 L10.338975,9.39656 Z" id="Shape" fill="#DDBEA8"></path>
                <path d="M11.409775,6.79166 C11.042225,8.26146 9.855525,9.33756 8.448375,9.33756 C7.066675,9.33756 5.899675,8.21046 5.509825,6.78146 C5.112175,6.85711 4.695725,6.50281 4.579575,5.99011 C4.463475,5.47736 4.691725,4.80446 5.089425,4.72876 L5.037075,2.92881 C5.037075,-0.48089 11.937675,-0.48089 11.937675,2.92881 L11.891125,4.74966 C12.317825,4.82531 12.552225,5.47736 12.427625,5.99011 C12.302975,6.50281 11.836525,6.86731 11.409775,6.79166 Z" id="Shape" fill="#F9D9C0"></path>
            </g>
        </g>
    </g>
</svg>